<svg height="512pt" viewBox="-25 0 512 512.00395" width="512pt" xmlns="http://www.w3.org/2000/svg"><path d="m452.710938 190.675781c0 38.710938-31.378907 70.089844-70.085938 70.089844s-70.089844-31.382813-70.089844-70.089844 31.382813-70.085937 70.089844-70.085937c5.195312 0 10.261719.566406 15.136719 1.636718 7.875 1.734376 15.257812 4.796876 21.894531 8.933594 8.234375 5.136719 15.324219 11.929688 20.800781 19.914063 7.730469 11.269531 12.253907 24.90625 12.253907 39.601562zm0 0" fill="#f5f0eb"/><path d="m299.300781 80.089844c0 38.707031-31.378906 70.085937-70.089843 70.085937-38.707032 0-70.085938-31.378906-70.085938-70.085937 0-38.707032 31.378906-70.085938 70.085938-70.085938 38.710937 0 70.089843 31.378906 70.089843 70.085938zm0 0" fill="#f5f0eb"/><path d="m229.5 97.34375c-8.199219 0-14.847656-6.648438-14.847656-14.847656v-11.191406c0-8.199219 6.648437-14.847657 14.847656-14.847657s14.847656 6.648438 14.847656 14.847657v11.191406c0 8.199218-6.648437 14.847656-14.847656 14.847656zm0 0" fill="#f2d1a5"/><path d="m192.382812 139.726562v-11.488281c0-7.722656 2.226563-15.285156 6.414063-21.78125 3.667969-5.691406 9.976563-9.128906 16.75-9.128906h27.535156c6.773438 0 13.082031 3.4375 16.75 9.128906 4.1875 6.496094 6.414063 14.058594 6.414063 21.78125v11.363281s-35.636719 23.320313-73.863282.125zm0 0" fill="#5ecef4"/><path d="m382.910156 207.929688c-8.199218 0-14.847656-6.644532-14.847656-14.847657v-11.191406c0-8.199219 6.648438-14.847656 14.847656-14.847656 8.199219 0 14.847656 6.648437 14.847656 14.847656v11.191406c0 8.203125-6.648437 14.847657-14.847656 14.847657zm0 0" fill="#f2d1a5"/><path d="m345.796875 250.316406v-11.488281c0-7.726563 2.222656-15.289063 6.410156-21.78125 3.667969-5.695313 9.976563-9.132813 16.75-9.132813h27.539063c6.769531 0 13.078125 3.4375 16.75 9.132813 4.183594 6.492187 6.410156 14.054687 6.410156 21.78125v11.359375s-35.636719 23.320312-73.859375.128906zm0 0" fill="#ff9f22"/><path d="m150.179688 190.675781c0 38.707031-31.382813 70.089844-70.089844 70.089844-38.707032 0-70.085938-31.382813-70.085938-70.089844s31.378906-70.085937 70.085938-70.085937c38.707031 0 70.089844 31.378906 70.089844 70.085937zm0 0" fill="#f5f0eb"/><path d="m80.378906 207.929688c-8.203125 0-14.847656-6.644532-14.847656-14.847657v-11.191406c0-8.199219 6.644531-14.847656 14.847656-14.847656 8.199219 0 14.847656 6.648437 14.847656 14.847656v11.191406c0 8.203125-6.648437 14.847657-14.847656 14.847657zm0 0" fill="#f2d1a5"/><path d="m43.265625 250.316406v-11.488281c0-7.726563 2.222656-15.289063 6.410156-21.78125 3.667969-5.695313 9.976563-9.132813 16.75-9.132813h27.535157c6.773437 0 13.082031 3.4375 16.753906 9.132813 4.183594 6.492187 6.410156 14.054687 6.410156 21.78125v11.359375s-35.636719 23.320312-73.859375.128906zm0 0" fill="#00ee8a"/><path d="m218.160156 329.128906c-12.242187-4.9375-20.878906-16.929687-20.878906-30.9375 0-18.414062 14.925781-33.34375 33.34375-33.34375 18.414062 0 33.339844 14.929688 33.339844 33.34375 0 13.457032-7.972656 25.054688-19.453125 30.320313" fill="#5ecef4"/><path d="m222.25 501.996094v-14.59375c0-4.484375-1.78125-8.785156-4.949219-11.953125l-12.378906-12.375c-4.625-4.628907-7.226563-10.90625-7.226563-17.449219v-7.707031c0-9.777344-1.914062-19.464844-5.632812-28.507813l-10.4375-25.375c-.828125-2.015625-.628906-4.308594.539062-6.148437l1.894532-2.992188c1.609375-2.546875 4.71875-3.707031 7.601562-2.839843l3.121094.933593c5.796875 1.738281 10.660156 5.710938 13.527344 11.042969l2.886718 5.375c3.257813 6.0625 5.558594 12.589844 6.828126 19.351562l1.15625 6.164063v-96.914063c0-2.371093.890624-4.65625 2.496093-6.402343l2.691407-2.925781c3.539062-3.851563 9.527343-4.101563 13.375-.558594l2.941406 2.707031c1.945312 1.792969 3.050781 4.316406 3.050781 6.960937v77.015626-37.050782c0-2.453125 1.101563-4.769531 3-6.320312l2.992187-2.441406c3.941407-3.214844 9.6875-2.882813 13.230469.765624l2.558594 2.636719c1.777344 1.828125 2.773437 4.28125 2.773437 6.828125v38.992188-24.777344c0-4.433594 2.335938-8.542969 6.144532-10.8125l2.8125-1.671875c2.519531-1.503906 5.667968-1.46875 8.15625.085937l3.09375 1.933594c2.492187 1.554688 4.003906 4.289063 4.003906 7.226563v34.152343-11.296874c0-2.773438.851562-5.484376 2.433594-7.761719l1.050781-1.515625c.550781-.792969 1.199219-1.523438 1.96875-2.101563 4.554687-3.4375 11.007813-3.261719 15.382813.640625l.929687.828125c1.992187 1.777344 3.128906 4.320313 3.128906 6.988281v69.429688c0 4.675781-1.476562 9.238281-4.222656 13.023438l-3.292969 4.542968c-1.542968 2.128906-2.371094 4.683594-2.371094 7.3125v17.558594" fill="#f2d1a5"/><path d="m186.429688 147.746094c.25.183594.496093.371094.765624.535156 1.15625.703125 2.3125 1.351562 3.464844 1.984375.367188.203125.738282.394531 1.109375.59375.589844.3125 1.179688.613281 1.765625.90625.519532.257813 1.035156.519531 1.558594.765625.601562.285156 1.203125.550781 1.800781.816406.691407.304688 1.382813.601563 2.082031.890625.75.304688 1.496094.601563 2.238282.882813.371094.136718.742187.269531 1.113281.402344.886719.320312 1.769531.621093 2.652344.902343.203125.0625.40625.132813.613281.199219 1.15625.355469 2.300781.683594 3.441406.976562.199219.054688.398438.097657.597656.148438.945313.238281 1.882813.457031 2.816407.652344.34375.074218.6875.148437 1.03125.21875.9375.183594 1.875.355468 2.800781.503906 4.210938.683594 8.527344 1.054688 12.929688 1.054688 14.125 0 27.398437-3.6875 38.933593-10.132813 2.066407-1.101563 3.3125-1.898437 3.578125-2.074219.167969-.113281.320313-.242187.480469-.359375 22.28125-14.238281 37.097656-39.175781 37.097656-67.523437 0-44.160156-35.925781-80.089844-80.089843-80.089844-44.160157 0-80.089844 35.929688-80.089844 80.089844 0 28.4375 14.910156 53.441406 37.308594 67.65625zm38.222656-65.25v-11.191406c0-2.671876 2.175781-4.84375 4.847656-4.84375s4.84375 2.171874 4.84375 4.84375v11.191406c0 2.609375-2.074219 4.726562-4.660156 4.824218h-.367188c-2.585937-.097656-4.664062-2.214843-4.664062-4.824218zm-9.105469 24.832031h13.21875c.246094.007813.488281.019531.734375.019531.242188 0 .484375-.011718.730469-.019531h12.851562c3.390625 0 6.507813 1.699219 8.34375 4.550781 3.148438 4.886719 4.816407 10.546875 4.816407 16.359375v5.414063c-9.0625 4.285156-30.5625 11.71875-53.855469.175781v-5.589844c0-5.8125 1.664062-11.472656 4.816406-16.359375 1.835937-2.851562 4.953125-4.550781 8.34375-4.550781zm13.664063-87.324219c33.132812 0 60.085937 26.953125 60.085937 60.085938 0 14.632812-5.265625 28.058594-13.992187 38.492187-1.214844-6.210937-3.59375-12.15625-7.0625-17.542969-3.585938-5.566406-8.804688-9.664062-14.808594-11.871093.59375-2.125.917968-4.359375.917968-6.671875v-11.191406c0-13.703126-11.152343-24.851563-24.851562-24.851563-13.703125 0-24.851562 11.148437-24.851562 24.851563v11.191406c0 2.265625.308593 4.460937.882812 6.550781-6.144531 2.175781-11.492188 6.324219-15.144531 11.992187-3.503907 5.441407-5.898438 11.453126-7.101563 17.734376-8.824218-10.460938-14.160156-23.957032-14.160156-38.683594 0-33.132813 26.957031-60.085938 60.085938-60.085938zm0 0"/><path d="m462.714844 190.675781c0-10.359375-1.953125-20.449219-5.804688-29.984375-.140625-.347656-.285156-.691406-.429687-1.042968-.226563-.53125-.453125-1.0625-.6875-1.585938-2.25-5.046875-8.167969-7.3125-13.210938-5.0625-5.046875 2.25-7.3125 8.164062-5.0625 13.210938.175781.394531.351563.789062.515625 1.183593.109375.261719.21875.523438.324219.789063 2.886719 7.144531 4.351563 14.710937 4.351563 22.492187 0 14.632813-5.265626 28.058594-13.992188 38.492188-1.214844-6.210938-3.59375-12.160157-7.0625-17.542969-3.589844-5.566406-8.804688-9.664062-14.8125-11.871094.59375-2.125.917969-4.359375.917969-6.671875v-11.191406c0-13.703125-11.148438-24.851563-24.851563-24.851563-13.699218 0-24.847656 11.148438-24.847656 24.851563v11.191406c0 2.269531.308594 4.464844.882812 6.550781-6.148437 2.175782-11.492187 6.324219-15.144531 11.992188-3.503906 5.441406-5.898437 11.453125-7.101562 17.734375-8.824219-10.460937-14.15625-23.957031-14.15625-38.683594 0-33.132812 26.953125-60.085937 60.082031-60.085937.617188 0 1.234375.011718 1.847656.027344.105469.003906.207032.007812.308594.007812 5.382812 0 9.828125-4.285156 9.992188-9.703125.164062-5.523437-4.175782-10.132813-9.699219-10.300781-.8125-.023438-1.628907-.035156-2.449219-.035156-44.160156 0-80.089844 35.929687-80.089844 80.089843 0 28.4375 14.914063 53.445313 37.316406 67.660157.246094.183593.492188.367187.757813.53125 1.15625.699218 2.308594 1.351562 3.460937 1.980468.371094.203125.746094.402344 1.125.601563.582032.308593 1.164063.609375 1.75.898437.519532.261719 1.042969.519532 1.570313.769532.589844.28125 1.175781.539062 1.765625.800781.703125.3125 1.414062.617187 2.128906.910156.742188.304687 1.480469.601563 2.214844.875.375.140625.75.273437 1.125.410156.882812.316407 1.761719.613281 2.636719.894531.210937.066407.417969.136719.625.203126 1.152343.355468 2.296875.679687 3.433593.976562.203126.050781.40625.097656.609376.148438.941406.238281 1.875.453124 2.804687.652343.347656.074219.691406.148438 1.039063.21875.9375.183594 1.871093.351563 2.796874.5 4.214844.6875 8.53125 1.058594 12.933594 1.058594 14.125 0 27.398438-3.6875 38.933594-10.132813 2.0625-1.105468 3.308594-1.902343 3.574219-2.074218.167969-.113282.320312-.242188.484375-.363282 22.277344-14.234374 37.09375-39.171874 37.09375-67.519531zm-84.648438-8.785156c0-2.671875 2.171875-4.84375 4.84375-4.84375s4.847656 2.171875 4.847656 4.84375v11.191406c0 2.609375-2.078124 4.730469-4.664062 4.828125h-.367188c-2.585937-.097656-4.660156-2.21875-4.660156-4.828125zm-22.269531 56.9375c0-5.816406 1.667969-11.476563 4.816406-16.363281 1.835938-2.847656 4.953125-4.546875 8.34375-4.546875h13.222657c.242187.003906.484374.015625.730468.015625s.488282-.007813.730469-.015625h12.855469c3.386718 0 6.507812 1.699219 8.339844 4.546875 3.152343 4.886718 4.816406 10.546875 4.816406 16.363281v5.414063c-9.0625 4.285156-30.5625 11.714843-53.855469.171874zm0 0"/><path d="m160.179688 190.675781c0-44.160156-35.925782-80.089843-80.089844-80.089843-44.160156 0-80.08593775 35.929687-80.08593775 80.089843 0 28.441407 14.91015575 53.445313 37.31249975 67.660157.246094.183593.492188.371093.761719.53125 1.152344.703124 2.304687 1.351562 3.457031 1.980468.371094.207032.75.402344 1.125.601563.582032.308593 1.167969.609375 1.75.898437.523438.261719 1.042969.523438 1.570313.773438.589843.277344 1.179687.535156 1.765625.796875.703125.3125 1.414062.617187 2.128906.910156.742188.304687 1.480469.601563 2.21875.878906.371094.136719.746094.273438 1.121094.40625.882812.316407 1.761718.613281 2.636718.894531.210938.066407.417969.136719.625.203126 1.152344.355468 2.296876.683593 3.4375.976562.199219.054688.402344.101562.605469.152344.941407.234375 1.878907.453125 2.808594.648437.34375.074219.6875.148438 1.035156.21875.9375.183594 1.871094.355469 2.800781.5 4.210938.6875 8.527344 1.058594 12.929688 1.058594 14.125 0 27.398438-3.6875 38.933594-10.132813 2.066406-1.101562 3.308594-1.898437 3.574218-2.074218.171876-.113282.324219-.242188.484376-.359375 22.28125-14.238281 37.09375-39.175781 37.09375-67.523438zm-140.171876 0c0-33.128906 26.953126-60.082031 60.082032-60.082031 33.132812 0 60.085937 26.953125 60.085937 60.082031 0 14.636719-5.265625 28.058594-13.992187 38.492188-1.214844-6.210938-3.59375-12.15625-7.0625-17.542969-3.585938-5.5625-8.804688-9.664062-14.808594-11.871094.59375-2.125.917969-4.359375.917969-6.671875v-11.191406c0-13.703125-11.148438-24.851563-24.851563-24.851563s-24.851562 11.148438-24.851562 24.851563v11.191406c0 2.269531.308594 4.464844.882812 6.554688-6.148437 2.171875-11.492187 6.320312-15.144531 11.988281-3.503906 5.441406-5.898437 11.453125-7.101563 17.734375-8.824218-10.460937-14.15625-23.957031-14.15625-38.683594zm55.523438 2.40625v-11.191406c0-2.671875 2.175781-4.84375 4.847656-4.84375s4.84375 2.171875 4.84375 4.84375v11.191406c0 2.609375-2.074218 4.730469-4.660156 4.828125h-.367188c-2.585937-.097656-4.664062-2.21875-4.664062-4.828125zm-9.105469 24.832031h13.222657c.242187.007813.484374.019532.730468.019532s.488282-.011719.730469-.019532h12.855469c3.386718 0 6.503906 1.703126 8.339844 4.550782 3.152343 4.886718 4.816406 10.546875 4.816406 16.359375v5.414062c-9.0625 4.289063-30.5625 11.71875-53.855469.175781v-5.589843c0-5.8125 1.667969-11.472657 4.816406-16.359375 1.835938-2.847656 4.953125-4.550782 8.34375-4.550782zm0 0"/><path d="m229.675781 245.199219c5.523438 0 10.003907-4.476563 10.003907-10v-15.765625c0-5.523438-4.480469-10.003906-10.003907-10.003906-5.523437 0-10.003906 4.480468-10.003906 10.003906v15.765625c0 5.523437 4.480469 10 10.003906 10zm0 0"/><path d="m269.820312 261.65625c1.507813 4.015625 5.316407 6.488281 9.363282 6.488281 1.171875 0 2.359375-.207031 3.519531-.644531l26.578125-9.988281c5.171875-1.941407 7.789062-7.710938 5.84375-12.882813-1.941406-5.171875-7.710938-7.789062-12.882812-5.84375l-26.578126 9.988282c-5.171874 1.945312-7.789062 7.714843-5.84375 12.882812zm0 0"/><path d="m182.207031 268.144531c4.046875 0 7.859375-2.476562 9.363281-6.488281 1.945313-5.167969-.671874-10.9375-5.84375-12.878906l-26.578124-9.992188c-5.171876-1.941406-10.9375.671875-12.882813 5.847656-1.945313 5.167969.671875 10.9375 5.84375 12.878907l26.582031 9.988281c1.15625.4375 2.347656.644531 3.515625.644531zm0 0"/><path d="m320.886719 375.707031c-4.84375-4.578125-11.742188-7.125-18.398438-6.292969 1.335938-.167968-3.070312-9.519531-3.613281-10.253906-4.921875-6.621094-14.492188-10.980468-22.578125-8.621094.625-.183593-1.429687-4.914062-8.746094-9.804687-3.363281-2.25-9.664062-5.25-13.738281-3.6875-.09375-.707031-.074219-1.457031-.074219-2.191406 12.445313-7.867188 20.230469-21.707031 20.230469-36.664063 0-24.386718-20.242188-44.136718-44.808594-43.324218-22.507812.746093-40.933594 19.011718-41.847656 41.515624-.667969 16.53125 7.886719 31.5625 21.867188 39.484376v13.503906 18.550781c0 .46875.03125.988281-.03125 1.433594.125-.894531-5.339844-3.359375-6.074219-3.730469-2.304688-1.175781-4.707031-2.171875-7.207031-2.847656-4.949219-1.335938-10.292969-1.261719-14.785157 1.4375-7.613281 4.566406-12.160156 15.234375-8.707031 23.625 0 0 10.4375 25.375 10.4375 25.375 3.222656 7.835937 4.878906 16.226562 4.878906 24.699218v7.710938c0 9.261719 3.609375 17.96875 10.160156 24.519531l12.375 12.375c1.292969 1.296875 2.019532 3.050781 2.019532 4.878907v14.289062c0 5.011719 3.558594 9.492188 8.519531 10.207031 6.183594.890625 11.488281-3.882812 11.488281-9.894531v-14.597656c0-7.136719-2.835937-13.980469-7.882812-19.027344l-12.375-12.375c-2.769532-2.769531-4.296875-6.453125-4.296875-10.375v-7.707031c0-11.082031-2.167969-22.0625-6.386719-32.3125l-4.273438-10.398438c-.527343-1.273437 1.324219-2.132812 1.953126-.902343 3.011718 5.890624 5.988281 11.816406 8.503906 17.941406 2.0625 5.027344 3.148437 10.796875 9.171875 12.359375 1.117187.292969 2.289062.386719 3.441406.277343 5.140625-.476562 9.074219-4.792968 9.074219-9.960937v-95.832031c0-.558594.210937-1.097656.589844-1.511719l.078124-.085937c.835938-.910157 2.25-.96875 3.160157-.132813.460937.425781.722656 1.019531.722656 1.644531v75.488282c0 5.011718 3.554687 9.492187 8.519531 10.207031 6.183594.890625 11.484375-3.882813 11.484375-9.894531v-35.21875c0-.605469.738281-2.246094 2.46875-2.246094 1.285157 0 2.078125 1.636718 2.078125 2.160156v38.402344c0 5.011718 3.558594 9.496094 8.519532 10.207031 6.183593.890625 11.488281-3.882813 11.488281-9.894531v-24.042969c0-1.363281.421875-3.328125 2.140625-3.328125 1.972656 0 2.066406 3.003906 2.066406 3.445312v29.75c0 5.015626 3.554688 9.496094 8.519531 10.210938 6.183594.886719 11.484375-3.886719 11.484375-9.898438v-11.296874c0-.734376.226563-1.453126.644532-2.054688l.597656-.859375c.675781-.96875 2.046875-1.136719 2.9375-.355469 0 0 .710937.398438.710937.636719v69.140625c0 2.570312-.8125 5.074219-2.320312 7.152344l-3.292969 4.546875c-2.78125 3.832031-4.277344 8.445312-4.277344 13.183593v17.242188c0 5.015625 3.558594 9.496094 8.519532 10.210938 6.183593.886718 11.488281-3.886719 11.488281-9.898438v-17.558594c0-.515625.160156-1.019531.464843-1.4375l3.292969-4.542968c3.984375-5.496094 6.128907-12.113282 6.128907-18.898438 0 0 0-69.351562 0-69.425781 0-5.664063-2.578126-10.714844-6.511719-14.429688zm-90.363281-80.074219c-5.199219.214844-10 2.445313-13.523438 6.277344l-2.6875 2.925782c-1.527344 1.660156-2.71875 3.554687-3.578125 5.585937-2.71875-4.429687-3.980469-9.777344-3.246094-15.359375 1.390625-10.601562 10.074219-19.011719 20.714844-20.089844 13.949219-1.414062 25.761719 9.550782 25.761719 23.21875 0 3.710938-.902344 7.289063-2.519532 10.488282-1.019531-1.929688-2.351562-3.703126-3.988281-5.210938l-2.9375-2.707031c-3.824219-3.523438-8.804687-5.363281-13.996093-5.128907zm0 0"/><path d="m222.609375 187.53125.292969.226562c1.808594 1.371094 3.933594 2.035157 6.042968 2.035157 3.019532 0 6.003907-1.359375 7.972657-3.953125 3.34375-4.398438 2.484375-10.671875-1.914063-14.015625l-.292968-.222657c-4.398438-3.34375-10.675782-2.484374-14.015626 1.914063-3.34375 4.402344-2.484374 10.675781 1.914063 14.015625zm0 0"/><path d="m413.460938 142.625.292968.226562c1.808594 1.371094 3.933594 2.035157 6.042969 2.035157 3.019531 0 6.003906-1.359375 7.972656-3.953125 3.339844-4.398438 2.484375-10.671875-1.914062-14.015625l-.296875-.222657c-4.398438-3.339843-10.671875-2.484374-14.015625 1.914063-3.339844 4.402344-2.484375 10.675781 1.917969 14.015625zm0 0"/></svg>