<svg height="512" viewBox="0 0 59 52" width="512" xmlns="http://www.w3.org/2000/svg"><g id="Page-1" fill="none" fill-rule="evenodd"><g id="002---Fast-Message" fill-rule="nonzero"><path id="Shape" d="m13.59 9h43.41c.6491706-.0000475 1.2579812.31498549 1.6328931.84495108.3749119.52996562.4692807 1.20892852.2531069 1.82104892l-10.588 30c-.2825878.8001807-1.0393869 1.3349105-1.888 1.334h-43.41c-.64917059.0000475-1.25798122-.3149855-1.63289312-.8449511-.37491189-.5299656-.46928069-1.2089285-.25310688-1.8210489l10.588-30c.2825878-.80018073 1.0393869-1.33491054 1.888-1.334z" fill="#f3d55b"/><g fill="#67b9cc"><path id="Shape" d="m40 6h-33c-.55228475 0-1-.44771525-1-1s.44771525-1 1-1h33c.5522847 0 1 .44771525 1 1s-.4477153 1-1 1z"/><path id="Shape" d="m52 6h-8c-.5522847 0-1-.44771525-1-1s.4477153-1 1-1h8c.5522847 0 1 .44771525 1 1s-.4477153 1-1 1z"/><path id="Shape" d="m48 2h-26c-.5522847 0-1-.44771525-1-1s.4477153-1 1-1h26c.5522847 0 1 .44771525 1 1s-.4477153 1-1 1z"/><path id="Shape" d="m18 2h-17c-.55228475 0-1-.44771525-1-1s.44771525-1 1-1h17c.5522847 0 1 .44771525 1 1s-.4477153 1-1 1z"/><path id="Shape" d="m40 48h-33c-.55228475 0-1-.4477153-1-1s.44771525-1 1-1h33c.5522847 0 1 .4477153 1 1s-.4477153 1-1 1z"/><path id="Shape" d="m52 48h-8c-.5522847 0-1-.4477153-1-1s.4477153-1 1-1h8c.5522847 0 1 .4477153 1 1s-.4477153 1-1 1z"/><path id="Shape" d="m48 52h-26c-.5522847 0-1-.4477153-1-1s.4477153-1 1-1h26c.5522847 0 1 .4477153 1 1s-.4477153 1-1 1z"/><path id="Shape" d="m18 52h-17c-.55228475 0-1-.4477153-1-1s.44771525-1 1-1h17c.5522847 0 1 .4477153 1 1s-.4477153 1-1 1z"/></g><path id="Shape" d="m45 14h-22c-.5522847 0-1-.4477153-1-1s.4477153-1 1-1h22c.5522847 0 1 .4477153 1 1s-.4477153 1-1 1z" fill="#ecf0f1"/><path id="Shape" d="m24.67 26.22-23.47 15.65c-.23256087-.4817176-.26139518-1.0367782-.08-1.54l10.58-30c.1178502-.33061984.3214697-.62396986.59-.85z" fill="#f0c419"/><path id="Shape" d="m47.67 42.55c-.3543028.2929954-.8002483.4522616-1.26.45h-43.41c-.76774363.0020916-1.46821291-.4376475-1.8-1.13l23.47-15.65 2.19 2.97c.6366486.8635263 1.8412325 1.0709089 2.73.47l5.72-3.88z" fill="#f29c1f"/><path id="Shape" d="m58.88 11.67-10.58 30c-.1230536.3467484-.341413.6517585-.63.88l-12.36-16.77 23.38-15.84c.329032.5157022.3992635 1.1551786.19 1.73z" fill="#f0c419"/></g></g></svg>