<svg id="Capa_1" enable-background="new 0 0 512 512" height="512" viewBox="0 0 512 512" width="512" xmlns="http://www.w3.org/2000/svg"><g><g><g><path d="m244.337 350.769c-9.119 0-17.864-3.71-24.205-10.306l-64.99-67.591c-12.854-13.369-12.438-34.627.931-47.481 13.368-12.854 34.626-12.439 47.481.931l39.13 40.696 72.28-85.835c11.943-14.188 33.13-16.004 47.315-4.057 14.186 11.946 16.003 33.13 4.057 47.316l-96.312 114.375c-6.131 7.282-15.065 11.619-24.58 11.932-.369.014-.738.02-1.107.02z" fill="#b2f0fb"/></g></g><g fill="#020288"><path d="m256 58.096c-109.125 0-197.904 88.779-197.904 197.904s88.779 197.905 197.904 197.905 197.904-88.78 197.904-197.905-88.779-197.904-197.904-197.904zm0 375.809c-98.097 0-177.904-79.808-177.904-177.904s79.807-177.905 177.904-177.905 177.904 79.808 177.904 177.904-79.807 177.905-177.904 177.905z"/><path d="m498.337 290.377c6.404-9.955 13.663-21.239 13.663-34.377s-7.259-24.422-13.663-34.377c-4.287-6.665-8.336-12.96-9.635-18.665-1.386-6.088-.459-13.74.522-21.842 1.468-12.119 2.985-24.65-2.533-36.071-5.614-11.621-16.971-18.584-26.99-24.728-6.866-4.21-13.351-8.186-17.123-12.903-3.811-4.767-6.273-11.997-8.88-19.652-3.771-11.079-8.046-23.636-18.077-31.634-9.978-7.956-23.151-9.337-34.773-10.554-8.088-.848-15.728-1.648-21.29-4.327-5.372-2.588-10.659-7.976-16.257-13.679-8.265-8.423-17.633-17.969-30.34-20.853-12.236-2.777-24.047 1.463-35.472 5.562-7.77 2.788-15.107 5.422-21.488 5.422s-13.719-2.634-21.488-5.422c-11.426-4.101-23.239-8.342-35.473-5.562-12.706 2.885-22.074 12.431-30.34 20.853-5.597 5.703-10.883 11.091-16.255 13.679-5.563 2.679-13.202 3.479-21.291 4.327-11.622 1.217-24.795 2.597-34.773 10.553-10.03 7.997-14.305 20.554-18.076 31.632-2.606 7.656-5.068 14.887-8.881 19.654-3.772 4.718-10.258 8.694-17.123 12.904-10.02 6.144-21.376 13.106-26.99 24.728-5.518 11.42-4 23.951-2.533 36.069.981 8.102 1.908 15.755.521 21.843-1.299 5.706-5.348 12.001-9.635 18.666-6.405 9.956-13.664 21.24-13.664 34.377s7.259 24.422 13.663 34.377c4.287 6.665 8.336 12.96 9.635 18.665 1.386 6.088.459 13.74-.521 21.842-1.468 12.119-2.985 24.65 2.533 36.071 5.614 11.621 16.971 18.584 26.99 24.728 6.866 4.21 13.351 8.186 17.123 12.903 3.812 4.767 6.273 11.997 8.88 19.652 3.772 11.079 8.046 23.636 18.077 31.634 9.979 7.956 23.151 9.337 34.773 10.554 8.088.848 15.728 1.648 21.29 4.327 5.372 2.588 10.659 7.976 16.257 13.679 8.265 8.423 17.633 17.969 30.34 20.853 12.236 2.777 24.048-1.462 35.472-5.563 7.77-2.788 15.107-5.422 21.488-5.422s13.719 2.634 21.488 5.422c8.874 3.185 17.98 6.453 27.338 6.453 2.69 0 5.402-.271 8.135-.891 12.706-2.885 22.074-12.431 30.34-20.853 5.597-5.703 10.883-11.091 16.255-13.679 5.563-2.679 13.202-3.479 21.291-4.327 11.622-1.217 24.795-2.597 34.773-10.553 10.03-7.997 14.305-20.554 18.076-31.632 2.606-7.656 5.068-14.887 8.881-19.654 3.773-4.718 10.258-8.694 17.123-12.904 10.02-6.144 21.376-13.106 26.99-24.728 5.518-11.42 4-23.951 2.533-36.069-.981-8.102-1.908-15.755-.522-21.843 1.3-5.705 5.349-12 9.636-18.665zm-16.82-10.819c-5.033 7.823-10.237 15.914-12.316 25.046-2.157 9.479-.976 19.243.168 28.686 1.173 9.682 2.279 18.827-.686 24.965-3.063 6.338-11.016 11.215-19.436 16.378-8.029 4.923-16.333 10.015-22.289 17.463-5.998 7.5-9.147 16.753-12.193 25.7-3.168 9.304-6.159 18.092-11.611 22.44-5.408 4.311-14.628 5.277-24.39 6.3-9.434.988-19.189 2.01-27.887 6.2-8.52 4.103-15.297 11.01-21.851 17.688-6.95 7.084-13.517 13.774-20.491 15.357-6.549 1.489-15.164-1.607-24.29-4.883-9.038-3.243-18.384-6.598-28.244-6.598s-19.206 3.354-28.244 6.598c-9.126 3.274-17.741 6.371-24.289 4.883-6.976-1.583-13.541-8.273-20.492-15.357-6.555-6.679-13.331-13.585-21.852-17.688-8.697-4.191-18.452-5.212-27.886-6.2-9.762-1.023-18.981-1.988-24.389-6.301-5.454-4.348-8.446-13.137-11.613-22.441-3.046-8.946-6.195-18.198-12.192-25.697-5.957-7.449-14.26-12.54-22.289-17.464-8.42-5.162-16.374-10.039-19.436-16.378-2.966-6.139-1.858-15.284-.687-24.966 1.143-9.442 2.326-19.206.169-28.685-2.079-9.132-7.283-17.223-12.316-25.046-5.393-8.381-10.485-16.297-10.485-23.558s5.092-15.177 10.483-23.558c5.033-7.823 10.237-15.914 12.316-25.046 2.157-9.479.976-19.243-.168-28.686-1.173-9.682-2.279-18.827.686-24.965 3.063-6.338 11.016-11.215 19.436-16.378 8.029-4.923 16.333-10.015 22.289-17.463 5.998-7.5 9.147-16.753 12.193-25.7 3.168-9.304 6.159-18.092 11.611-22.439 5.408-4.312 14.628-5.277 24.39-6.3 9.434-.988 19.189-2.01 27.887-6.2 8.52-4.104 15.297-11.01 21.851-17.688 6.95-7.084 13.517-13.774 20.491-15.357 6.549-1.485 15.165 1.608 24.29 4.883 9.038 3.243 18.384 6.598 28.244 6.598s19.206-3.354 28.244-6.598c9.126-3.274 17.741-6.372 24.289-4.883 6.976 1.583 13.541 8.273 20.492 15.356 6.555 6.679 13.331 13.585 21.852 17.688 8.697 4.191 18.452 5.212 27.886 6.2 9.762 1.022 18.981 1.988 24.389 6.301 5.454 4.348 8.446 13.137 11.613 22.441 3.046 8.946 6.195 18.198 12.192 25.697 5.957 7.449 14.26 12.54 22.289 17.464 8.42 5.162 16.374 10.039 19.436 16.378 2.966 6.139 1.858 15.284.687 24.966-1.144 9.442-2.326 19.206-.169 28.685 2.079 9.132 7.283 17.223 12.316 25.046 5.393 8.382 10.485 16.298 10.485 23.558 0 7.261-5.092 15.177-10.483 23.558z"/></g></g></svg>